<svg width="1024" height="1024" viewBox="0 0 1024 1024" fill="none" xmlns="http://www.w3.org/2000/svg">
<g clip-path="url(#clip0_379_954)">
<rect width="1024" height="1024" fill="white"/>
<path d="M511.991 96C440.17 95.9843 369.568 114.564 307.057 149.929C244.547 185.295 192.257 236.242 155.278 297.812C118.299 359.382 97.8905 429.477 96.0387 501.274C94.187 573.072 110.955 644.126 144.711 707.52L99.3112 843.72C95.5506 854.997 95.0048 867.098 97.7351 878.667C100.465 890.236 106.364 900.817 114.769 909.222C123.175 917.627 133.755 923.526 145.324 926.256C156.894 928.986 168.995 928.441 180.271 924.68L316.471 879.28C372.262 908.954 434.08 925.528 497.232 927.744C560.385 929.96 623.212 917.76 680.946 892.069C738.679 866.379 789.801 827.873 830.431 779.475C871.062 731.077 900.132 674.06 915.436 612.749C930.74 551.439 931.876 487.448 918.756 425.633C905.637 363.819 878.608 305.805 839.72 255.997C800.833 206.188 751.109 165.893 694.323 138.17C637.538 110.448 575.183 96.0259 511.991 96ZM511.991 864C450.11 864.042 389.315 847.746 335.751 816.76C331.829 814.486 327.469 813.071 322.959 812.609C318.449 812.147 313.893 812.648 309.591 814.08L159.991 864L209.871 714.4C211.309 710.101 211.817 705.546 211.362 701.036C210.907 696.526 209.499 692.165 207.231 688.24C168.43 621.157 152.852 543.143 162.912 466.302C172.973 389.462 208.111 318.089 262.875 263.256C317.638 208.423 388.967 173.195 465.795 163.037C542.623 152.879 620.656 168.359 687.788 207.075C754.921 245.792 807.4 305.58 837.085 377.166C866.771 448.752 872.002 528.133 851.969 602.996C831.935 677.858 787.756 744.017 726.285 791.209C664.814 838.4 589.488 863.987 511.991 864Z" fill="#6E6E6E"/>
<path d="M405.02 339.244L345.65 398.636L322.344 375.308C318.961 371.924 314.372 370.023 309.587 370.023C304.802 370.023 300.213 371.924 296.829 375.308C293.446 378.691 291.545 383.28 291.545 388.065C291.545 392.85 293.446 397.439 296.829 400.822L332.893 436.886C334.567 438.562 336.556 439.892 338.745 440.8C340.934 441.707 343.281 442.174 345.65 442.174C348.02 442.174 350.366 441.707 352.555 440.8C354.744 439.892 356.733 438.562 358.408 436.886L430.535 364.759C433.918 361.375 435.819 356.786 435.819 352.001C435.819 347.217 433.918 342.628 430.535 339.244C427.151 335.861 422.562 333.96 417.777 333.96C412.992 333.96 408.403 335.861 405.02 339.244Z" fill="#FFD600"/>
<path d="M706.285 658.541H507.936C503.154 658.541 498.567 660.441 495.186 663.823C491.804 667.204 489.904 671.791 489.904 676.573C489.904 681.355 491.804 685.942 495.186 689.323C498.567 692.705 503.154 694.605 507.936 694.605H706.285C711.067 694.605 715.654 692.705 719.036 689.323C722.417 685.942 724.317 681.355 724.317 676.573C724.317 671.791 722.417 667.204 719.036 663.823C715.654 660.441 711.067 658.541 706.285 658.541Z" fill="#B2B2B2"/>
<path d="M724.317 532.319C724.317 537.101 722.417 541.688 719.036 545.069C715.654 548.451 711.067 550.351 706.285 550.351H507.936C503.154 550.351 498.567 548.451 495.186 545.069C491.804 541.688 489.904 537.101 489.904 532.319C489.904 527.537 491.804 522.95 495.186 519.569C498.567 516.187 503.154 514.287 507.936 514.287H706.285C711.067 514.287 715.654 516.187 719.036 519.569C722.417 522.95 724.317 527.537 724.317 532.319Z" fill="#B2B2B2"/>
<path fill-rule="evenodd" clip-rule="evenodd" d="M345.65 687.144L405.02 627.752C408.403 624.368 412.992 622.468 417.777 622.468C422.562 622.468 427.151 624.368 430.535 627.752C433.918 631.135 435.819 635.724 435.819 640.509C435.819 645.294 433.918 649.883 430.535 653.267L358.408 725.394C356.733 727.07 354.744 728.4 352.555 729.308C350.366 730.215 348.02 730.682 345.65 730.682C343.281 730.682 340.934 730.215 338.745 729.308C336.556 728.4 334.567 727.07 332.893 725.394L296.829 689.33C295.154 687.655 293.825 685.666 292.918 683.477C292.012 681.288 291.545 678.942 291.545 676.573C291.545 674.204 292.012 671.858 292.918 669.669C293.825 667.48 295.154 665.491 296.829 663.815C298.505 662.14 300.493 660.811 302.682 659.904C304.871 658.998 307.217 658.531 309.587 658.531C311.956 658.531 314.302 658.998 316.491 659.904C318.68 660.811 320.669 662.14 322.344 663.815L345.65 687.144Z" fill="#FF0000"/>
<path d="M507.936 406.097H706.285C711.067 406.097 715.654 404.197 719.036 400.815C722.417 397.434 724.317 392.847 724.317 388.065C724.317 383.283 722.417 378.696 719.036 375.315C715.654 371.933 711.067 370.033 706.285 370.033H507.936C503.154 370.033 498.567 371.933 495.186 375.315C491.804 378.696 489.904 383.283 489.904 388.065C489.904 392.847 491.804 397.434 495.186 400.815C498.567 404.197 503.154 406.097 507.936 406.097Z" fill="#B2B2B2"/>
<path d="M405.02 483.498L345.65 542.89L322.344 519.561C318.961 516.178 314.372 514.277 309.587 514.277C304.802 514.277 300.213 516.178 296.829 519.561C293.446 522.945 291.545 527.534 291.545 532.319C291.545 534.688 292.012 537.034 292.918 539.223C293.825 541.412 295.154 543.401 296.829 545.076L332.893 581.14C334.567 582.816 336.556 584.146 338.745 585.054C340.934 585.961 343.281 586.428 345.65 586.428C348.02 586.428 350.366 585.961 352.555 585.054C354.744 584.146 356.733 582.816 358.408 581.14L430.535 509.013C433.918 505.629 435.819 501.04 435.819 496.255C435.819 491.47 433.918 486.881 430.535 483.498C427.151 480.114 422.562 478.214 417.777 478.214C412.992 478.214 408.403 480.114 405.02 483.498Z" fill="#00E0F5"/>
</g>
<defs>
<clipPath id="clip0_379_954">
<rect width="1024" height="1024" fill="white"/>
</clipPath>
</defs>
</svg>
